<svg viewBox="0 0 640 400" data-background-color="#121212" preserveAspectRatio="xMidYMid meet" height="400" width="640" xmlns="http://www.w3.org/2000/svg" xmlns:xlink="http://www.w3.org/1999/xlink"><rect width="640" height="400" x="0" y="0" opacity="1" fill="#121212" data-fill-palette-color="background" id="background"></rect><g id="tight-bounds" transform="matrix(1,0,0,1,122.24000000000001,143.57836807733275)"><svg viewBox="0 0 395.52 112.84326384533452" height="112.84326384533452" width="395.52"><g><svg viewBox="0 0 599.8434522671946 171.13747206230624" height="112.84326384533452" width="395.52"><g transform="matrix(1,0,0,1,0,50.425413324812354)"><svg viewBox="0 0 395.52 70.28664541268154" height="70.28664541268154" width="395.52"><g><svg viewBox="0 0 395.52 70.28664541268154" height="70.28664541268154" width="395.52"><g><svg viewBox="0 0 395.52 70.28664541268154" height="70.28664541268154" width="395.52"><g transform="matrix(1,0,0,1,0,0)"><svg width="395.52" viewBox="0 -36.25 206.75 36.7400016784668" height="70.28664541268154" data-palette-color="#ffffff"><g class="undefined-text-0" data-fill-palette-color="primary" id="text-0"><path d="M31.64 0L27.34 0 22.9-11.35 8.59-11.35 4.2 0 0 0 14.11-35.84 17.6-35.84 31.64 0ZM10.06-15.09L21.61-15.09 17.46-26.15Q16.65-28.25 15.8-31.3L15.8-31.3Q15.26-28.96 14.26-26.15L14.26-26.15 10.06-15.09ZM64.43-35.69L64.43 0 59.69 0 40.18-29.96 39.99-29.96Q40.38-24.68 40.38-20.29L40.38-20.29 40.38 0 36.55 0 36.55-35.69 41.23-35.69 60.69-5.86 60.89-5.86Q60.84-6.52 60.67-10.1 60.5-13.67 60.54-15.21L60.54-15.21 60.54-35.69 64.43-35.69ZM89.52-32.5L89.52-32.5Q83.64-32.5 80.23-28.58 76.83-24.66 76.83-17.85L76.83-17.85Q76.83-10.84 80.11-7.02 83.39-3.2 89.47-3.2L89.47-3.2Q93.21-3.2 97.99-4.54L97.99-4.54 97.99-0.9Q94.28 0.49 88.84 0.49L88.84 0.49Q80.95 0.49 76.67-4.3 72.38-9.08 72.38-17.9L72.38-17.9Q72.38-23.41 74.45-27.56 76.51-31.71 80.4-33.96 84.3-36.21 89.57-36.21L89.57-36.21Q95.19-36.21 99.38-34.16L99.38-34.16 97.63-30.59Q93.57-32.5 89.52-32.5ZM132.88-35.69L132.88 0 128.73 0 128.73-16.8 109.93-16.8 109.93 0 105.78 0 105.78-35.69 109.93-35.69 109.93-20.51 128.73-20.51 128.73-35.69 132.88-35.69ZM173.65-17.9L173.65-17.9Q173.65-9.33 169.31-4.42 164.98 0.49 157.27 0.49L157.27 0.49Q149.38 0.49 145.09-4.33 140.81-9.16 140.81-17.94L140.81-17.94Q140.81-26.66 145.11-31.46 149.4-36.25 157.31-36.25L157.31-36.25Q165-36.25 169.33-31.37 173.65-26.49 173.65-17.9ZM145.2-17.9L145.2-17.9Q145.2-10.64 148.29-6.9 151.38-3.15 157.27-3.15L157.27-3.15Q163.2-3.15 166.23-6.88 169.25-10.62 169.25-17.9L169.25-17.9Q169.25-25.1 166.24-28.82 163.22-32.54 157.31-32.54L157.31-32.54Q151.38-32.54 148.29-28.8 145.2-25.05 145.2-17.9ZM193.2-14.84L185.75-14.84 185.75 0 181.6 0 181.6-35.69 191.39-35.69Q197.96-35.69 201.1-33.18 204.24-30.66 204.24-25.61L204.24-25.61Q204.24-18.53 197.06-16.04L197.06-16.04 206.75 0 201.84 0 193.2-14.84ZM185.75-32.06L185.75-18.41 191.44-18.41Q195.84-18.41 197.89-20.15 199.94-21.9 199.94-25.39L199.94-25.39Q199.94-28.93 197.85-30.49 195.76-32.06 191.15-32.06L191.15-32.06 185.75-32.06Z" fill="#FFFFFF" data-fill-palette-color="primary"></path></g></svg></g></svg></g></svg></g></svg></g><g transform="matrix(1,0,0,1,428.7059802048884,0)"><svg viewBox="0 0 171.13747206230624 171.13747206230624" height="171.13747206230624" width="171.13747206230624"><g><svg></svg></g><g id="icon-0"><svg viewBox="0 0 171.13747206230624 171.13747206230624" height="171.13747206230624" width="171.13747206230624"><g><path d="M0 85.569c0-47.258 38.31-85.569 85.569-85.569 47.258 0 85.569 38.31 85.568 85.569 0 47.258-38.31 85.569-85.568 85.568-47.258 0-85.569-38.31-85.569-85.568zM85.569 164.799c43.758 0 79.23-35.473 79.23-79.23 0-43.758-35.473-79.23-79.23-79.23-43.758 0-79.23 35.473-79.23 79.23 0 43.758 35.473 79.23 79.23 79.23z" data-fill-palette-color="accent" fill="#FFFFFF" stroke="#000000" stroke-opacity="0"></path></g><g transform="matrix(1,0,0,1,36.050265984813464,41.94262092999948)"><svg viewBox="0 0 99.03694009267932 87.25223020230729" height="87.25223020230729" width="99.03694009267932"><g><svg xmlns="http://www.w3.org/2000/svg" xmlns:xlink="http://www.w3.org/1999/xlink" version="1.1" x="0" y="0" viewBox="6.300000190734863 11.5 87.39999389648438 77" style="enable-background:new 0 0 100 100;" xml:space="preserve" height="87.25223020230729" width="99.03694009267932" class="icon-s-0" data-fill-palette-color="accent" id="s-0"><path d="M72.3 12.3L72.3 12.3 72.3 12.3l-0.4-0.8H28.2L6.3 50l21.8 38.5h43.7L93.7 50 72.3 12.3zM33.3 25.3L9.9 47.7l18.6-32.8L33.3 25.3zM70.7 14.8l6.4 35.7L36.9 25.8 70.7 14.8zM35.5 27.3l41 25.2-41 23.3V27.3zM77 54.5l-7.2 30.8-32.6-8.1L77 54.5zM33.5 75L9.9 50.5l23.6-22.7V75zM33.2 77.6l-4.6 7.7L11.5 55.1 33.2 77.6zM35 78.6l31.4 7.9H30.2L35 78.6zM79.3 53.3l11.6-2.5L72.1 84 79.3 53.3zM90.7 48.9l-11.4 2.5-5.9-33.1L90.7 48.9zM35 24.3l-5-10.8h38.2L35 24.3z" fill="#FFFFFF" data-fill-palette-color="accent"></path></svg></g></svg></g></svg></g></svg></g></svg></g><defs></defs></svg><rect width="395.52" height="112.84326384533452" fill="none" stroke="none" visibility="hidden"></rect></g></svg>