<?xml version="1.0" encoding="utf-8"?>
<!-- Generator: Adobe Illustrator 24.0.0, SVG Export Plug-In . SVG Version: 6.00 Build 0)  -->
<svg version="1.1" id="s-0" xmlns="http://www.w3.org/2000/svg" xmlns:xlink="http://www.w3.org/1999/xlink" x="0px" y="0px"
	 viewBox="0 0 171.1 171.1" style="enable-background:new 0 0 171.1 171.1;" xml:space="preserve">
<style type="text/css">
	.st0{fill:#FFFFFF;stroke:#000000;stroke-opacity:0;}
	.st1{fill:#FFFFFF;}
</style>
<g id="icon-0">
	<g>
		<path class="st0" d="M0,85.6C0,38.3,38.3,0,85.6,0s85.6,38.3,85.6,85.6s-38.3,85.6-85.6,85.6C38.3,171.1,0,132.8,0,85.6z
			 M85.6,164.8c43.8,0,79.2-35.5,79.2-79.2c0-43.8-35.5-79.2-79.2-79.2C41.8,6.3,6.3,41.8,6.3,85.6C6.3,129.3,41.8,164.8,85.6,164.8
			z"/>
	</g>
	<g transform="matrix(1,0,0,1,36.050265984813464,41.94262092999948)">
		<g>
			<path class="st1" d="M74.8,0.9L74.8,0.9L74.8,0.9L74.3,0H24.8L0,43.6l24.7,43.6h49.5L99,43.6L74.8,0.9z M30.6,15.6L4.1,41
				L25.2,3.9L30.6,15.6z M73,3.7l7.3,40.5l-45.6-28L73,3.7z M33.1,17.9l46.5,28.6L33.1,72.9V17.9z M80.1,48.7L72,83.6l-37-9.2
				L80.1,48.7z M30.8,72L4.1,44.2l26.7-25.7C30.8,18.5,30.8,72,30.8,72z M30.5,74.9l-5.2,8.7L5.9,49.4L30.5,74.9z M32.5,76l35.6,9
				h-41L32.5,76z M82.7,47.4l13.1-2.8L74.6,82.2L82.7,47.4z M95.6,42.4l-12.9,2.8L76,7.7L95.6,42.4z M32.5,14.5L26.9,2.3h43.3
				L32.5,14.5z"/>
		</g>
	</g>
</g>
</svg>
